<?xml version="1.0" encoding="UTF-8" standalone="no" ?>
<!DOCTYPE svg PUBLIC "-//W3C//DTD SVG 1.1//EN" "http://www.w3.org/Graphics/SVG/1.1/DTD/svg11.dtd">
<svg xmlns="http://www.w3.org/2000/svg" xmlns:xlink="http://www.w3.org/1999/xlink" version="1.1" width="1080" height="1080" viewBox="0 0 1080 1080" xml:space="preserve">
<desc>Created with Fabric.js 4.2.0</desc>
<defs>
</defs>
<rect x="0" y="0" width="100%" height="100%" fill="transparent"></rect>
<g transform="matrix(1 0 0 1 540 540)" id="b08f6069-2ebc-44d7-9f47-40d1947f77c0"  >
<rect style="stroke: none; stroke-width: 1; stroke-dasharray: none; stroke-linecap: butt; stroke-dashoffset: 0; stroke-linejoin: miter; stroke-miterlimit: 4; fill: rgb(255,255,255); fill-rule: nonzero; opacity: 1;" vector-effect="non-scaling-stroke"  x="-540" y="-540" rx="0" ry="0" width="1080" height="1080" />
</g>
<g transform="matrix(1 0 0 1 540 540)" id="b4d77a85-f805-41d9-b03a-9b0e58d2412b"  >
</g>
<g transform="matrix(1.72 0 0 1.72 540 433.72)"  >
<g style="" vector-effect="non-scaling-stroke"   >
		<g transform="matrix(1 0 0 1 -19.11 0)"  >
<path style="stroke: none; stroke-width: 1; stroke-dasharray: none; stroke-linecap: butt; stroke-dashoffset: 0; stroke-linejoin: miter; stroke-miterlimit: 4; fill: rgb(0,0,0); fill-rule: nonzero; opacity: 1;" vector-effect="non-scaling-stroke"  transform=" translate(-236.88, -256)" d="M 353.103 433.256 L 329.048 439.45599999999996 C 325.178 440.45099999999996 321.136 438.419 319.638 434.727 C 312.643 417.49699999999996 296.25699999999995 377.14799999999997 254.17699999999996 382.849 C 251.31199999999995 383.23699999999997 248.45499999999996 383.639 245.63899999999995 384.034 C 231.87599999999995 385.968 217.62999999999994 388.044 211.43999999999994 386.95099999999996 C 201.10399999999993 385.12499999999994 191.44099999999995 381.16299999999995 189.18199999999993 370.393 C 187.92399999999992 365.393 189.30399999999995 360.602 192.06399999999994 356.395 C 195.17899999999995 350.827 193.34699999999992 343.272 187.97799999999992 339.555 C 185.65099999999993 337.944 183.11299999999991 336.791 180.99499999999992 336.003 C 181.3079999999999 335.276 182.03899999999993 334.36199999999997 183.5709999999999 333.258 C 185.2169999999999 332.072 186.31099999999992 330.27 186.6059999999999 328.264 C 186.89999999999992 326.25800000000004 186.36999999999992 324.218 185.1359999999999 322.60900000000004 C 184.79799999999992 322.16800000000006 181.75199999999992 318.29200000000003 175.4159999999999 313.12700000000007 C 180.6529999999999 309.0780000000001 188.3269999999999 301.58700000000005 187.14999999999992 293.14400000000006 C 186.58499999999992 289.0880000000001 183.87599999999992 283.6260000000001 174.1779999999999 280.64400000000006 C 164.39999999999992 277.6360000000001 164.3919999999999 274.1000000000001 164.38699999999992 271.9870000000001 C 164.38099999999991 269.31200000000007 165.82299999999992 267.4690000000001 171.0939999999999 263.41100000000006 C 179.4699999999999 256.96200000000005 189.0459999999999 248.56800000000007 196.5549999999999 235.20100000000005 C 199.27299999999988 230.36200000000005 199.5959999999999 224.45100000000005 197.4199999999999 219.38900000000004 C 196.2019999999999 216.55500000000004 194.5479999999999 213.93500000000003 192.9489999999999 211.40100000000004 C 191.0499999999999 208.39300000000003 188.4489999999999 204.27300000000002 188.8629999999999 202.49600000000004 C 189.13499999999988 201.32600000000005 189.9489999999999 199.60500000000005 190.89199999999988 197.61200000000002 C 193.33899999999988 192.44000000000003 196.6909999999999 185.35500000000002 197.39799999999988 174.52200000000002 C 202.00299999999987 103.90500000000002 266.88799999999986 72.29500000000002 329.1479999999999 72.29500000000002 C 381.6569999999999 72.29500000000002 431.01499999999993 88.92900000000002 461.1809999999999 116.79100000000003 C 464.22399999999993 119.60100000000003 468.96899999999994 119.41300000000003 471.7799999999999 116.37000000000002 C 474.5899999999999 113.32700000000001 474.40199999999993 108.58200000000002 471.3589999999999 105.77100000000002 C 438.4939999999999 75.41700000000002 385.3309999999999 57.29400000000002 329.1489999999999 57.29400000000002 C 317.1699999999999 57.29400000000002 305.4589999999999 58.34000000000002 294.21699999999987 60.36400000000002 C 281.1029999999999 58.33300000000002 267.75799999999987 57.29400000000002 254.52699999999987 57.29400000000002 C 242.52499999999986 57.29400000000002 230.79099999999988 58.34500000000002 219.52999999999986 60.37600000000002 C 206.39299999999986 58.33700000000002 193.02199999999985 57.29400000000002 179.76299999999986 57.29400000000002 C 146.33699999999988 57.29400000000002 115.49199999999986 65.17200000000003 90.56299999999986 80.07800000000002 C 87.00799999999985 82.20300000000002 85.84899999999986 86.80900000000001 87.97499999999987 90.36400000000002 C 89.37999999999987 92.71400000000001 91.86699999999986 94.01700000000002 94.41899999999987 94.01600000000002 C 95.72799999999987 94.01600000000002 97.05499999999986 93.67300000000002 98.25999999999986 92.95200000000003 C 120.86399999999986 79.43700000000003 149.04699999999985 72.29400000000003 179.76299999999986 72.29400000000003 C 179.95899999999986 72.29400000000003 180.15599999999986 72.29900000000002 180.35199999999986 72.30000000000003 C 171.54199999999986 76.24200000000002 163.32499999999987 80.91900000000003 155.86099999999988 86.29400000000003 C 126.78099999999988 107.23400000000002 110.16499999999988 137.40500000000003 107.80799999999988 173.54400000000004 C 107.28699999999988 181.52400000000003 104.85599999999988 186.66200000000003 102.71099999999988 191.19600000000003 C 101.45499999999988 193.85100000000003 100.26799999999989 196.36 99.63099999999989 199.092 C 97.79499999999989 206.977 102.14699999999989 213.869 105.64299999999989 219.407 C 106.99199999999989 221.543 108.26599999999989 223.561 109.01699999999988 225.309 C 109.36099999999988 226.109 109.29999999999988 227.06 108.85499999999988 227.852 C 103.86799999999988 236.729 97.62899999999988 243.587 87.32199999999987 251.523 C 82.31199999999987 255.38 74.74099999999987 261.209 74.76499999999987 272.018 C 74.69099999999987 283.88399999999996 83.27699999999987 291.58299999999997 97.13299999999987 295.729 C 95.79999999999987 297.724 92.36099999999986 300.916 89.15399999999987 303.01099999999997 C 88.33699999999988 303.54099999999994 87.62999999999987 304.22599999999994 87.07399999999987 305.02599999999995 C 84.13899999999987 309.25299999999993 82.66899999999987 317.852 90.65099999999987 324.215 C 91.99599999999987 325.28799999999995 93.16399999999987 326.291 94.15899999999986 327.19399999999996 C 89.48799999999986 334.25999999999993 91.01899999999986 341.89699999999993 93.92599999999986 346.157 C 95.01299999999986 347.75 96.67099999999986 348.863 98.55599999999986 349.265 C 99.14999999999985 349.39099999999996 101.30099999999986 349.985 103.27799999999985 350.984 C 100.58299999999986 355.87199999999996 97.29399999999985 363.00899999999996 99.99399999999984 373.977 C 100.80599999999984 377.275 102.00199999999984 380.279 103.53499999999984 383.02 C 101.09299999999985 383.354 98.65699999999984 383.695 96.25499999999984 384.032 C 82.48999999999984 385.965 68.25499999999984 387.964 62.05399999999984 386.94899999999996 C 45.07199999999984 384.169 41.21799999999984 376.16799999999995 39.795999999999836 370.39099999999996 C 38.53799999999983 365.39099999999996 39.917999999999836 360.59999999999997 42.677999999999834 356.393 C 45.792999999999836 350.825 43.960999999999835 343.27 38.59299999999983 339.553 C 36.265999999999835 337.942 33.72799999999983 336.789 31.609999999999832 336.001 C 31.92299999999983 335.274 32.65399999999983 334.35999999999996 34.18599999999983 333.256 C 35.83099999999983 332.07 36.92499999999983 330.26899999999995 37.21999999999983 328.26199999999994 C 37.51499999999983 326.25499999999994 36.98499999999983 324.21599999999995 35.74999999999983 322.60699999999997 C 35.41199999999983 322.166 32.36599999999983 318.289 26.02999999999983 313.12399999999997 C 31.266999999999832 309.07599999999996 38.94099999999983 301.585 37.76399999999983 293.14099999999996 C 37.198999999999835 289.085 34.488999999999834 283.62299999999993 24.790999999999833 280.64099999999996 C 15.012999999999833 277.633 15.004999999999834 274.097 14.999999999999833 271.984 C 14.993999999999833 269.30899999999997 16.435999999999833 267.466 21.706999999999834 263.40799999999996 C 30.082999999999835 256.96 39.65799999999983 248.56599999999995 47.16699999999983 235.19799999999995 C 49.884999999999835 230.35999999999996 50.20899999999983 224.44899999999996 48.03299999999983 219.38499999999996 C 46.81499999999983 216.55199999999996 45.16099999999983 213.93199999999996 43.56199999999983 211.39799999999997 C 41.662999999999826 208.38999999999996 39.06099999999983 204.26999999999998 39.474999999999824 202.49299999999997 C 39.74699999999982 201.32299999999998 40.56099999999982 199.60199999999998 41.50399999999982 197.60899999999998 C 43.95099999999982 192.43699999999998 47.30299999999982 185.35199999999998 48.00999999999982 174.51899999999998 C 49.56999999999982 150.611 58.04799999999982 130.00599999999997 73.21099999999981 113.27399999999997 C 75.99199999999982 110.20499999999997 75.75899999999982 105.46199999999997 72.68999999999981 102.67999999999998 C 69.62199999999982 99.89799999999998 64.87799999999982 100.13199999999998 62.09599999999981 103.20099999999998 C 44.60299999999981 122.50399999999998 34.82699999999981 146.17 33.04299999999981 173.541 C 32.52199999999981 181.521 30.09099999999981 186.659 27.945999999999806 191.19299999999998 C 26.689999999999806 193.84799999999998 25.502999999999805 196.356 24.865999999999808 199.08899999999997 C 23.02999999999981 206.97399999999996 27.381999999999806 213.86599999999996 30.878999999999806 219.40499999999997 C 32.2279999999998 221.54099999999997 33.5019999999998 223.55899999999997 34.25299999999981 225.30599999999998 C 34.59699999999981 226.106 34.53599999999981 227.057 34.08999999999981 227.849 C 29.10299999999981 236.72699999999998 22.863999999999812 243.58499999999998 12.55699999999981 251.51999999999998 C 7.5469999999998105 255.38199999999998 -0.023000000000189758 261.21 -1.900701818158268e-13 272.02 C -0.07300000000019007 283.88599999999997 8.51199999999981 291.584 22.36799999999981 295.72999999999996 C 21.034999999999812 297.72499999999997 17.595999999999812 300.917 14.388999999999811 303.01199999999994 C 13.57199999999981 303.5419999999999 12.86499999999981 304.22599999999994 12.308999999999811 305.02699999999993 C 9.372999999999811 309.25499999999994 7.902999999999811 317.8539999999999 15.885999999999811 324.2169999999999 C 17.23099999999981 325.28899999999993 18.39799999999981 326.29299999999995 19.39399999999981 327.19499999999994 C 14.72299999999981 334.2609999999999 16.25399999999981 341.8979999999999 19.16199999999981 346.15899999999993 C 20.24899999999981 347.7509999999999 21.90699999999981 348.8639999999999 23.79199999999981 349.26599999999996 C 24.38599999999981 349.39199999999994 26.53699999999981 349.98699999999997 28.51399999999981 350.98499999999996 C 25.81899999999981 355.87299999999993 22.52999999999981 363.00999999999993 25.229999999999812 373.97799999999995 C 28.99899999999981 389.28999999999996 40.57299999999981 398.63399999999996 59.630999999999815 401.75299999999993 C 68.08599999999981 403.13899999999995 82.10699999999981 401.16799999999995 98.34099999999981 398.88699999999994 C 101.1319999999998 398.49499999999995 103.9649999999998 398.0969999999999 106.80499999999981 397.71199999999993 C 133.6529999999998 394.07199999999995 146.48599999999982 416.06199999999995 156.3529999999998 440.36799999999994 C 159.9289999999998 449.17599999999993 168.5349999999998 454.70399999999995 177.7039999999998 454.70399999999995 C 179.5939999999998 454.70399999999995 181.5079999999998 454.46899999999994 183.4069999999998 453.97999999999996 L 231.6489999999998 441.54499999999996 C 235.4899999999998 449.662 243.7169999999998 454.705 252.4679999999998 454.705 C 254.35799999999978 454.705 256.27199999999976 454.46999999999997 258.17099999999976 453.981 L 306.2859999999998 441.578 C 310.13499999999976 449.676 318.3509999999998 454.705 327.08999999999975 454.705 C 328.97999999999973 454.705 330.8939999999997 454.46999999999997 332.79199999999975 453.981 L 356.84699999999975 447.781 C 360.8579999999998 446.747 363.27099999999973 442.657 362.2379999999998 438.646 C 361.2049999999998 434.63500000000005 357.11599999999976 432.22200000000004 353.1029999999998 433.25600000000003 z M 100.793 313.12699999999995 C 106.03 309.078 113.70400000000001 301.58699999999993 112.527 293.14399999999995 C 111.962 289.08799999999997 109.252 283.626 99.554 280.64399999999995 C 89.776 277.63599999999997 89.768 274.09999999999997 89.76400000000001 271.98699999999997 C 89.75800000000001 269.31199999999995 91.20000000000002 267.469 96.471 263.41099999999994 C 104.84700000000001 256.96199999999993 114.423 248.56799999999996 121.932 235.20099999999994 C 124.649 230.36299999999994 124.973 224.45199999999994 122.797 219.38899999999992 C 121.579 216.55499999999992 119.925 213.93499999999992 118.326 211.40099999999993 C 116.42699999999999 208.39299999999992 113.826 204.2729999999999 114.24 202.49599999999992 C 114.512 201.32499999999993 115.326 199.60499999999993 116.26899999999999 197.6119999999999 C 118.716 192.4389999999999 122.068 185.3549999999999 122.77399999999999 174.5219999999999 C 127.37999999999998 103.9049999999999 192.26399999999998 72.2949999999999 254.524 72.2949999999999 C 254.674 72.2949999999999 254.825 72.29899999999991 254.975 72.2999999999999 C 246.164 76.2419999999999 237.946 80.9189999999999 230.48 86.2949999999999 C 201.40099999999998 107.2349999999999 184.784 137.4059999999999 182.428 173.5449999999999 C 181.907 181.52399999999992 179.476 186.6629999999999 177.331 191.1969999999999 C 176.075 193.8519999999999 174.88799999999998 196.3599999999999 174.25099999999998 199.09299999999988 C 172.41499999999996 206.97799999999987 176.76699999999997 213.86999999999986 180.26299999999998 219.40799999999987 C 181.61199999999997 221.54399999999987 182.88599999999997 223.56199999999987 183.63799999999998 225.31099999999986 C 183.98099999999997 226.10999999999987 183.92099999999996 227.06099999999986 183.47499999999997 227.85299999999987 C 178.48799999999997 236.72999999999988 172.24899999999997 243.58799999999985 161.94199999999995 251.52399999999986 C 156.93199999999996 255.38099999999986 149.36099999999996 261.20999999999987 149.38499999999996 272.01899999999983 C 149.40999999999997 283.10299999999984 156.26699999999997 290.82799999999986 169.76599999999996 294.97999999999985 C 170.64899999999997 295.25099999999986 171.29299999999995 295.51099999999985 171.75299999999996 295.72899999999987 C 170.41999999999996 297.7239999999999 166.98099999999997 300.9159999999999 163.77399999999994 303.01099999999985 C 162.95699999999994 303.5409999999998 162.24999999999994 304.22499999999985 161.69399999999993 305.02599999999984 C 158.75799999999992 309.25399999999985 157.28799999999993 317.85299999999984 165.26999999999992 324.21599999999984 C 166.61499999999992 325.28799999999984 167.78299999999993 326.29199999999986 168.77799999999993 327.1949999999998 C 164.10699999999994 334.2609999999998 165.63799999999995 341.8979999999998 168.54499999999993 346.15799999999984 C 169.63199999999992 347.75099999999986 171.28999999999994 348.86399999999986 173.17499999999993 349.26599999999985 C 173.76899999999992 349.3919999999998 175.92099999999994 349.98699999999985 177.89699999999993 350.98499999999984 C 175.20199999999994 355.8729999999998 171.91299999999993 363.0099999999998 174.61299999999994 373.97799999999984 C 175.42699999999994 377.28299999999984 176.62599999999995 380.29299999999984 178.16399999999993 383.03999999999985 C 175.76599999999993 383.36899999999986 173.37399999999994 383.70299999999986 171.01399999999992 384.0339999999999 C 157.25099999999992 385.9679999999999 143.01699999999994 387.9659999999999 136.81499999999994 386.95099999999985 C 119.83299999999994 384.1709999999999 115.97899999999994 376.16999999999985 114.55699999999995 370.39299999999986 C 113.29799999999994 365.39399999999983 114.67899999999995 360.60199999999986 117.43799999999995 356.39599999999984 C 120.55499999999995 350.8269999999998 118.72199999999995 343.2719999999998 113.35299999999995 339.55499999999984 C 111.02599999999995 337.94399999999985 108.48799999999996 336.7909999999998 106.36999999999995 336.0029999999998 C 106.68299999999995 335.27599999999984 107.41399999999994 334.3619999999998 108.94599999999994 333.2579999999998 C 110.59099999999994 332.07199999999983 111.68499999999995 330.2699999999998 111.97999999999995 328.2639999999998 C 112.27399999999994 326.2579999999998 111.74399999999994 324.2179999999998 110.50999999999995 322.6089999999998 C 110.17499999999995 322.16799999999984 107.12899999999995 318.2909999999998 100.79299999999995 313.12699999999984 z M 179.663 439.45599999999996 C 175.79500000000002 440.45399999999995 171.751 438.419 170.252 434.727 C 166.895 426.45799999999997 161.372 412.86499999999995 151.88600000000002 401.592 C 160.08700000000002 400.786 170.91100000000003 399.175 181.56900000000002 397.714 C 203.59900000000002 394.727 216.192 409.004 225.455 427.653 z M 254.42700000000002 439.45599999999996 C 250.55800000000002 440.45099999999996 246.51500000000001 438.419 245.01700000000002 434.727 C 241.65900000000002 426.45399999999995 236.13400000000001 412.854 226.64200000000002 401.578 C 232.95100000000002 400.96 240.08800000000002 399.96099999999996 247.72600000000003 398.888 C 250.51800000000003 398.496 253.35100000000003 398.09799999999996 256.192 397.71299999999997 C 278.235 394.724 290.83 409.01899999999995 300.094 427.68399999999997 z" stroke-linecap="round" />
</g>
		<g transform="matrix(1 0 0 1 190.6 29.16)"  >
<path style="stroke: none; stroke-width: 1; stroke-dasharray: none; stroke-linecap: butt; stroke-dashoffset: 0; stroke-linejoin: miter; stroke-miterlimit: 4; fill: rgb(0,0,0); fill-rule: nonzero; opacity: 1;" vector-effect="non-scaling-stroke"  transform=" translate(-446.6, -285.16)" d="M 455.146 325.937 C 503.783 281.92 512 256.126 512 200.961 C 512 176.377 506.218 154.077 494.816 134.683 C 492.71599999999995 131.112 488.11999999999995 129.91899999999998 484.549 132.019 C 480.97799999999995 134.118 479.78499999999997 138.715 481.885 142.286 C 491.914 159.345 497 179.086 497 200.962 C 497 252.767 490.187 273.995 445.081 314.816 C 431.387 327.21 432.749 354.85299999999995 449.248 399.325 C 450.05199999999996 401.49199999999996 449.907 403.811 448.839 405.853 C 447.777 407.884 445.96999999999997 409.318 443.75 409.89 L 386.824 424.56399999999996 C 382.813 425.59799999999996 380.40000000000003 429.688 381.433 433.69899999999996 C 382.282 436.52199999999993 385.953 440.32399999999996 390.568 439.09 L 447.49399999999997 424.416 C 453.787 422.793 459.12199999999996 418.561 462.133 412.802 C 465.149 407.03200000000004 465.578 400.218 463.31199999999995 394.108 C 443.83899999999994 341.618 452.13899999999995 328.658 455.14599999999996 325.937 z" stroke-linecap="round" />
</g>
</g>
</g>
<g transform="matrix(0.71 0 0 0.71 670.28 434.63)" id="2c00310c-0a05-4009-8062-706eebd71ecd"  >
<path style="stroke: rgb(0,0,0); stroke-width: 0; stroke-dasharray: none; stroke-linecap: butt; stroke-dashoffset: 0; stroke-linejoin: miter; stroke-miterlimit: 4; fill: rgb(0,0,0); fill-rule: nonzero; opacity: 1;" vector-effect="non-scaling-stroke"  transform=" translate(-256, -256)" d="M 464.866 0.026 C 430.017 0.026 401.666 28.377 401.666 63.226000000000006 L 401.666 143.543 C 401.666 218.801 344.299 280.911 270.998 288.444 L 270.998 30 L 280.099 30 C 288.383 30 295.099 23.284 295.099 15 C 295.099 6.716000000000001 288.383 0 280.099 0 L 231.898 0 C 223.614 0 216.898 6.716 216.898 15 C 216.898 23.284 223.614 30 231.898 30 L 240.999 30 L 240.999 288.445 C 167.7 280.912 110.334 218.802 110.334 143.54399999999998 L 110.334 63.227 C 110.334 28.378 81.982 0.026999999999993918 47.133 0.026999999999993918 C 38.849000000000004 0.026999999999993918 32.133 6.742999999999994 32.133 15.026999999999994 C 32.133 23.310999999999993 38.849000000000004 30.026999999999994 47.133 30.026999999999994 C 65.44 30.026999999999994 80.334 44.919999999999995 80.334 63.227 L 80.334 143.54399999999998 C 80.334 235.355 151.133 310.929 240.999 318.56499999999994 L 240.999 482 L 207.801 482 C 199.517 482 192.801 488.716 192.801 497 C 192.801 505.284 199.517 512 207.801 512 L 304.201 512 C 312.485 512 319.201 505.284 319.201 497 C 319.201 488.716 312.485 482 304.201 482 L 270.999 482 L 270.999 318.566 C 360.867 310.929 431.66700000000003 235.35499999999996 431.66700000000003 143.54399999999998 L 431.66700000000003 63.227 C 431.66700000000003 44.92 446.56100000000004 30.026999999999994 464.867 30.026999999999994 C 473.151 30.026999999999994 479.867 23.310999999999993 479.867 15.026999999999994 C 479.866 6.742 473.15 0.026 464.866 0.026 z" stroke-linecap="round" />
</g>
<g transform="matrix(1 0 0 1 540 856.33)" style="" id="bca963e3-f110-4635-a6f4-872075d0f2fb"  >
		<text xml:space="preserve" font-family="Raleway" font-size="105" font-style="normal" font-weight="900" style="stroke: none; stroke-width: 1; stroke-dasharray: none; stroke-linecap: butt; stroke-dashoffset: 0; stroke-linejoin: miter; stroke-miterlimit: 4; fill: rgb(0,0,0); fill-rule: nonzero; opacity: 1; white-space: pre;" ><tspan x="-120.07" y="32.98" >CAPI</tspan></text>
</g>
</svg>